<mxfile host="65bd71144e">
    <diagram id="7TzP1tWZ9uoe_w1A25YJ" name="Page-1">
        <mxGraphModel dx="1937" dy="1743" grid="1" gridSize="10" guides="1" tooltips="1" connect="1" arrows="1" fold="1" page="1" pageScale="1" pageWidth="850" pageHeight="1100" math="0" shadow="0">
            <root>
                <mxCell id="0"/>
                <mxCell id="1" parent="0"/>
                <mxCell id="12" style="edgeStyle=none;html=1;entryX=0;entryY=0.5;entryDx=0;entryDy=0;" edge="1" parent="1" source="13" target="17">
                    <mxGeometry relative="1" as="geometry"/>
                </mxCell>
                <mxCell id="13" value="DATA SET&amp;nbsp;" style="whiteSpace=wrap;html=1;" vertex="1" parent="1">
                    <mxGeometry x="9" y="63" width="120" height="60" as="geometry"/>
                </mxCell>
                <mxCell id="14" style="edgeStyle=none;html=1;entryX=0;entryY=0.5;entryDx=0;entryDy=0;" edge="1" parent="1" source="15" target="17">
                    <mxGeometry relative="1" as="geometry"/>
                </mxCell>
                <mxCell id="15" value="DATA SET&amp;nbsp;" style="whiteSpace=wrap;html=1;" vertex="1" parent="1">
                    <mxGeometry x="9" y="153" width="120" height="60" as="geometry"/>
                </mxCell>
                <mxCell id="16" style="edgeStyle=none;html=1;" edge="1" parent="1" source="17">
                    <mxGeometry relative="1" as="geometry">
                        <mxPoint x="359" y="133" as="targetPoint"/>
                    </mxGeometry>
                </mxCell>
                <mxCell id="17" value="AI MAGIC" style="rhombus;whiteSpace=wrap;html=1;" vertex="1" parent="1">
                    <mxGeometry x="189" y="93" width="80" height="80" as="geometry"/>
                </mxCell>
                <mxCell id="18" value="Predictor" style="whiteSpace=wrap;html=1;" vertex="1" parent="1">
                    <mxGeometry x="9" y="13" width="430" height="30" as="geometry"/>
                </mxCell>
                <mxCell id="19" value="OUTPUT&lt;br&gt;With Certainty&amp;nbsp;" style="whiteSpace=wrap;html=1;" vertex="1" parent="1">
                    <mxGeometry x="359" y="103" width="120" height="60" as="geometry"/>
                </mxCell>
                <mxCell id="20" value="Corrector" style="whiteSpace=wrap;html=1;" vertex="1" parent="1">
                    <mxGeometry x="386" y="193" width="440" height="30" as="geometry"/>
                </mxCell>
            </root>
        </mxGraphModel>
    </diagram>
</mxfile>